<svg width="1600" height="1040" viewBox="0 0 1600 1040" fill="none" xmlns="http://www.w3.org/2000/svg">
  <defs>
    <linearGradient id="bg" x1="257" y1="64" x2="1251" y2="912" gradientUnits="userSpaceOnUse">
      <stop stop-color="#111519"/>
      <stop offset="0.4" stop-color="#0B0F12"/>
      <stop offset="1" stop-color="#171D22"/>
    </linearGradient>
    <radialGradient id="skyGlow" cx="0" cy="0" r="1" gradientUnits="userSpaceOnUse" gradientTransform="translate(1133 182) rotate(90) scale(210 306)">
      <stop stop-color="#E5B173"/>
      <stop offset="1" stop-color="#E5B173" stop-opacity="0"/>
    </radialGradient>
    <linearGradient id="ground" x1="244" y1="660" x2="1325" y2="865" gradientUnits="userSpaceOnUse">
      <stop stop-color="#1B2328"/>
      <stop offset="1" stop-color="#252D35"/>
    </linearGradient>
    <linearGradient id="body" x1="420" y1="418" x2="1117" y2="758" gradientUnits="userSpaceOnUse">
      <stop stop-color="#1A2026"/>
      <stop offset="0.48" stop-color="#0B0E11"/>
      <stop offset="1" stop-color="#1A2027"/>
    </linearGradient>
    <linearGradient id="roof" x1="603" y1="325" x2="848" y2="548" gradientUnits="userSpaceOnUse">
      <stop stop-color="#2D353D"/>
      <stop offset="1" stop-color="#14181D"/>
    </linearGradient>
    <linearGradient id="window" x1="575" y1="430" x2="844" y2="482" gradientUnits="userSpaceOnUse">
      <stop stop-color="#343C45"/>
      <stop offset="1" stop-color="#1E252D"/>
    </linearGradient>
    <linearGradient id="snorkel" x1="995" y1="260" x2="1016" y2="582" gradientUnits="userSpaceOnUse">
      <stop stop-color="#D5DCE3"/>
      <stop offset="0.3" stop-color="#8E98A2"/>
      <stop offset="1" stop-color="#5A6470"/>
    </linearGradient>
  </defs>
  <rect width="1600" height="1040" rx="48" fill="url(#bg)"/>
  <ellipse cx="1133" cy="182" rx="306" ry="210" fill="url(#skyGlow)"/>
  <path d="M0 696C170 621 312 601 465 627C606 652 757 736 935 729C1097 722 1231 635 1394 634C1466 634 1536 646 1600 676V1040H0V696Z" fill="#1A2127"/>
  <path d="M0 804C182 759 320 759 459 796C579 829 682 893 842 902C1002 912 1159 870 1289 845C1407 823 1494 826 1600 860V1040H0V804Z" fill="url(#ground)"/>
  <g opacity="0.9">
    <path d="M123 633L157 566L191 633H123Z" fill="#26312B"/>
    <path d="M146 563L182 494L218 563H146Z" fill="#202A24"/>
    <rect x="167" y="633" width="10" height="72" fill="#191C18"/>
    <path d="M250 615L291 536L332 615H250Z" fill="#28342D"/>
    <path d="M277 532L318 455L359 532H277Z" fill="#202A24"/>
    <rect x="301" y="615" width="11" height="84" fill="#171B17"/>
    <path d="M1336 624L1372 556L1408 624H1336Z" fill="#253028"/>
    <path d="M1360 552L1398 480L1436 552H1360Z" fill="#1E2721"/>
    <rect x="1381" y="624" width="11" height="76" fill="#191C18"/>
    <path d="M1460 647L1504 564L1548 647H1460Z" fill="#28332B"/>
    <path d="M1488 559L1533 474L1578 559H1488Z" fill="#202A24"/>
    <rect x="1512" y="647" width="12" height="88" fill="#181B17"/>
  </g>
  <path d="M1042 394H1114L1137 428V517H1082L1042 489V394Z" fill="#12161A"/>
  <path d="M1060 366H1117V394H1060V366Z" fill="#090B0D"/>
  <path d="M1129 259H1148V472H1129V259Z" fill="url(#snorkel)"/>
  <path d="M1118 220H1158V259H1118V220Z" fill="#DFE4E9"/>
  <path d="M420 585L488 417H981L1128 473L1208 663H1149L1096 710H1007L980 663H643L617 710H529L468 585H420Z" fill="url(#body)"/>
  <path d="M512 406L652 322H928L1008 383L981 417H488L512 406Z" fill="url(#roof)"/>
  <path d="M589 441H739V535H530L555 463L589 441Z" fill="url(#window)"/>
  <path d="M764 441H922L1010 517V535H764V441Z" fill="url(#window)"/>
  <path d="M386 629H487L501 664H371L386 629Z" fill="#090B0D"/>
  <path d="M404 605H484L487 629H386L404 605Z" fill="#1D242B"/>
  <rect x="606" y="358" width="175" height="30" rx="15" fill="#303841"/>
  <rect x="793" y="358" width="111" height="30" rx="15" fill="#303841"/>
  <rect x="917" y="358" width="49" height="30" rx="15" fill="#303841"/>
  <path d="M973 475H1091L1138 556H995L973 475Z" fill="#0A0D11"/>
  <rect x="984" y="489" width="110" height="14" rx="7" fill="#171C21"/>
  <path d="M1179 699C1258 673 1336 697 1418 756" stroke="#E4AF72" stroke-width="6" stroke-dasharray="12 18" opacity="0.76"/>
  <path d="M1223 694C1276 688 1339 704 1411 754C1461 789 1501 810 1568 818" stroke="#E4AF72" stroke-width="4" stroke-dasharray="10 16" opacity="0.42"/>
  <circle cx="631" cy="713" r="82" fill="#060709"/>
  <circle cx="631" cy="713" r="38" fill="#5F6974"/>
  <circle cx="968" cy="713" r="90" fill="#060709"/>
  <circle cx="968" cy="713" r="43" fill="#5F6974"/>
  <circle cx="631" cy="713" r="13" fill="#293038"/>
  <circle cx="968" cy="713" r="14" fill="#293038"/>
  <path d="M532 533H1087" stroke="rgba(255,255,255,0.08)" stroke-width="2"/>
  <path d="M476 602H1192" stroke="rgba(255,255,255,0.06)" stroke-width="2"/>
  <rect x="104" y="86" width="412" height="146" rx="32" fill="#14191E" stroke="rgba(255,255,255,0.08)"/>
  <text x="146" y="143" fill="#F5F0E8" font-family="Arial" font-size="40" font-weight="700">SNORKEL HERO PLATFORM</text>
  <text x="146" y="192" fill="#9AA4AD" font-family="Arial" font-size="24">Pines, lluvia y un truck grande con foco real en admisión alta</text>
  <text x="1012" y="912" fill="#86929D" font-family="Arial" font-size="22" letter-spacing="4">VALDIVIAN FOREST / RAIN / BARRO / 4X4</text>
</svg>
